# xmcd
#
# Track frame offsets:
#	150
#	21052
#	36328
#	51419
#	67801
#	84261
#	108356
#	126184
#	146468
#	160475
#	176551
#	191888
#	206145
#	218752
#	234629
#	254059
#	274116
#	290644
#	305488
#	323188
#	340811
#
# Disc length: 4770 seconds
#
# Revision: 1
# Processed by: cddbd v1.5.2PL0 Copyright (c) Steve Scherf et al.
# Submitted via: audiograbber 1.83.01
#
DISCID=4612a015
DTITLE=Las 101 grandes canciones de Amor - Las 101 grandes canciones de Amor -C
DTITLE=d4
DYEAR=2000
DGENRE=Pop
TTITLE0=Santana - Samba pa Ti
TTITLE1=The Pretenders - Message of Love
TTITLE2=Tom Jones - Delilah
TTITLE3=Alphaville - Forever Young
TTITLE4=Eurythmics - Love is a Stranger
TTITLE5=Paul Young - Everytime you go Away
TTITLE6=Cyndi Lauper - Time after Time
TTITLE7=Europe - Carrie
TTITLE8=Faith No More - Easy
TTITLE9=Fine Young Cannibals - She drives me Crazy
TTITLE10=Joy Division - Love will tear us Apart
TTITLE11=The Association - Never my Love
TTITLE12=Dusty Springfield - You don't have to say you love Me
TTITLE13=Demis Roussos - We shall Dance
TTITLE14=Big Mountain - Baby, i love your Way
TTITLE15=Midge Ure - Breathe
TTITLE16=Howard Jones - What is Love?
TTITLE17=Journey - Open Arms
TTITLE18=Sixpence None The Richer - Don't dream it's Over
TTITLE19=The Beloved - Deliver Me
TTITLE20=Maria Muldaur - Midnight at the Oasis
EXTD=crg
EXTT0=
EXTT1=
EXTT2=
EXTT3=
EXTT4=
EXTT5=
EXTT6=
EXTT7=
EXTT8=
EXTT9=
EXTT10=
EXTT11=
EXTT12=
EXTT13=
EXTT14=
EXTT15=
EXTT16=
EXTT17=
EXTT18=
EXTT19=
EXTT20=
PLAYORDER=
